# xmcd
#
# Track frame offsets: 
#        150
#        24455
#        57688
#        82661
#        101676
#        132866
#        169934
#        189591
#        210597
#        235405
#
# Disc length: 3518 seconds
#
# Revision: 0
# Processed by: cddbd v1.5.2PL0 Copyright (c) Steve Scherf et al.
# Submitted via: ExactAudioCopy v1.3
#
DISCID=840dbc0a
DTITLE=Cranford Hollow - St. Telluride
DYEAR=2015
DGENRE=Country
TTITLE0=She Gone
TTITLE1=Without A Word
TTITLE2=Devil
TTITLE3=Anything Less
TTITLE4=Breakdown
TTITLE5=Mighty Sun
TTITLE6=Last Fall Breeze
TTITLE7=Run And Hide
TTITLE8=Broken Cigarette
TTITLE9=Pushing Pain
EXTD=
EXTT0=
EXTT1=
EXTT2=
EXTT3=
EXTT4=
EXTT5=
EXTT6=
EXTT7=
EXTT8=
EXTT9=
PLAYORDER=
